<mxfile host="app.diagrams.net" agent="Mozilla/5.0 (Windows NT 10.0; Win64; x64) AppleWebKit/537.36 (KHTML, like Gecko) Chrome/138.0.0.0 Safari/537.36" version="28.0.9">
  <diagram name="Nivel 2 DFD" id="0FNHPUYHEFIvPLdxSCWv">
    <mxGraphModel dx="1426" dy="751" grid="1" gridSize="10" guides="1" tooltips="1" connect="1" arrows="1" fold="1" page="1" pageScale="1" pageWidth="827" pageHeight="1169" math="0" shadow="0">
      <root>
        <mxCell id="0" />
        <mxCell id="1" parent="0" />
        <mxCell id="07yp42R3b0lHenqod3L6-20" style="edgeStyle=orthogonalEdgeStyle;rounded=0;orthogonalLoop=1;jettySize=auto;html=1;entryX=0;entryY=0.5;entryDx=0;entryDy=0;" edge="1" parent="1" source="07yp42R3b0lHenqod3L6-1" target="07yp42R3b0lHenqod3L6-6">
          <mxGeometry relative="1" as="geometry" />
        </mxCell>
        <mxCell id="07yp42R3b0lHenqod3L6-1" value="Cliente" style="rounded=0;whiteSpace=wrap;html=1;" vertex="1" parent="1">
          <mxGeometry x="640" y="305" width="120" height="60" as="geometry" />
        </mxCell>
        <mxCell id="07yp42R3b0lHenqod3L6-23" style="edgeStyle=orthogonalEdgeStyle;rounded=0;orthogonalLoop=1;jettySize=auto;html=1;entryX=0.5;entryY=0;entryDx=0;entryDy=0;" edge="1" parent="1" source="07yp42R3b0lHenqod3L6-6" target="07yp42R3b0lHenqod3L6-22">
          <mxGeometry relative="1" as="geometry" />
        </mxCell>
        <mxCell id="07yp42R3b0lHenqod3L6-6" value="&lt;span style=&quot;background-color: transparent; color: light-dark(rgb(0, 0, 0), rgb(255, 255, 255));&quot;&gt;encarga el pedido&lt;/span&gt;" style="ellipse;whiteSpace=wrap;html=1;aspect=fixed;" vertex="1" parent="1">
          <mxGeometry x="836" y="290" width="90" height="90" as="geometry" />
        </mxCell>
        <mxCell id="07yp42R3b0lHenqod3L6-37" style="edgeStyle=orthogonalEdgeStyle;rounded=0;orthogonalLoop=1;jettySize=auto;html=1;entryX=0.5;entryY=0;entryDx=0;entryDy=0;" edge="1" parent="1" source="07yp42R3b0lHenqod3L6-8" target="07yp42R3b0lHenqod3L6-34">
          <mxGeometry relative="1" as="geometry" />
        </mxCell>
        <mxCell id="07yp42R3b0lHenqod3L6-8" value="cargar pedido" style="ellipse;whiteSpace=wrap;html=1;aspect=fixed;" vertex="1" parent="1">
          <mxGeometry x="1190" y="570" width="90" height="90" as="geometry" />
        </mxCell>
        <mxCell id="07yp42R3b0lHenqod3L6-59" style="edgeStyle=orthogonalEdgeStyle;rounded=0;orthogonalLoop=1;jettySize=auto;html=1;entryX=0.5;entryY=1;entryDx=0;entryDy=0;" edge="1" parent="1" source="07yp42R3b0lHenqod3L6-17" target="07yp42R3b0lHenqod3L6-58">
          <mxGeometry relative="1" as="geometry" />
        </mxCell>
        <mxCell id="07yp42R3b0lHenqod3L6-17" value="pedido enviado" style="ellipse;whiteSpace=wrap;html=1;aspect=fixed;" vertex="1" parent="1">
          <mxGeometry x="505" y="680" width="90" height="90" as="geometry" />
        </mxCell>
        <mxCell id="07yp42R3b0lHenqod3L6-55" style="edgeStyle=orthogonalEdgeStyle;rounded=0;orthogonalLoop=1;jettySize=auto;html=1;entryX=0.5;entryY=1;entryDx=0;entryDy=0;" edge="1" parent="1" source="07yp42R3b0lHenqod3L6-19" target="07yp42R3b0lHenqod3L6-17">
          <mxGeometry relative="1" as="geometry" />
        </mxCell>
        <mxCell id="07yp42R3b0lHenqod3L6-19" value="facturar pedido" style="ellipse;whiteSpace=wrap;html=1;aspect=fixed;" vertex="1" parent="1">
          <mxGeometry x="500" y="874.92" width="100" height="100" as="geometry" />
        </mxCell>
        <mxCell id="07yp42R3b0lHenqod3L6-39" style="edgeStyle=orthogonalEdgeStyle;rounded=0;orthogonalLoop=1;jettySize=auto;html=1;entryX=0.5;entryY=0;entryDx=0;entryDy=0;" edge="1" parent="1" source="07yp42R3b0lHenqod3L6-22" target="07yp42R3b0lHenqod3L6-31">
          <mxGeometry relative="1" as="geometry" />
        </mxCell>
        <mxCell id="07yp42R3b0lHenqod3L6-22" value="Pedido registrado" style="ellipse;whiteSpace=wrap;html=1;aspect=fixed;" vertex="1" parent="1">
          <mxGeometry x="836" y="430" width="90" height="90" as="geometry" />
        </mxCell>
        <mxCell id="07yp42R3b0lHenqod3L6-41" style="edgeStyle=orthogonalEdgeStyle;rounded=0;orthogonalLoop=1;jettySize=auto;html=1;entryX=0;entryY=0.5;entryDx=0;entryDy=0;" edge="1" parent="1" source="07yp42R3b0lHenqod3L6-27" target="07yp42R3b0lHenqod3L6-8">
          <mxGeometry relative="1" as="geometry">
            <mxPoint x="1075" y="615" as="sourcePoint" />
          </mxGeometry>
        </mxCell>
        <mxCell id="IMeaLYmTmbIntdOvfTnf-2" style="edgeStyle=orthogonalEdgeStyle;shape=connector;rounded=0;orthogonalLoop=1;jettySize=auto;html=1;entryX=0;entryY=0.5;entryDx=0;entryDy=0;strokeColor=default;align=center;verticalAlign=middle;fontFamily=Helvetica;fontSize=11;fontColor=default;labelBackgroundColor=default;endArrow=classic;" edge="1" parent="1" source="07yp42R3b0lHenqod3L6-31" target="07yp42R3b0lHenqod3L6-27">
          <mxGeometry relative="1" as="geometry" />
        </mxCell>
        <mxCell id="07yp42R3b0lHenqod3L6-31" value="verificar y validar" style="ellipse;whiteSpace=wrap;html=1;aspect=fixed;" vertex="1" parent="1">
          <mxGeometry x="836" y="570" width="90" height="90" as="geometry" />
        </mxCell>
        <mxCell id="07yp42R3b0lHenqod3L6-84" style="edgeStyle=orthogonalEdgeStyle;rounded=0;orthogonalLoop=1;jettySize=auto;html=1;entryX=1;entryY=0.5;entryDx=0;entryDy=0;exitX=0.5;exitY=1;exitDx=0;exitDy=0;" edge="1" parent="1" source="07yp42R3b0lHenqod3L6-34" target="07yp42R3b0lHenqod3L6-83">
          <mxGeometry relative="1" as="geometry" />
        </mxCell>
        <mxCell id="07yp42R3b0lHenqod3L6-34" value="generacion de etiqueta de envio" style="ellipse;whiteSpace=wrap;html=1;aspect=fixed;" vertex="1" parent="1">
          <mxGeometry x="1190" y="710" width="90" height="90" as="geometry" />
        </mxCell>
        <mxCell id="07yp42R3b0lHenqod3L6-54" style="edgeStyle=orthogonalEdgeStyle;rounded=0;orthogonalLoop=1;jettySize=auto;html=1;entryX=1;entryY=0.5;entryDx=0;entryDy=0;" edge="1" parent="1" source="07yp42R3b0lHenqod3L6-44" target="07yp42R3b0lHenqod3L6-19">
          <mxGeometry relative="1" as="geometry">
            <mxPoint x="890" y="924.92" as="targetPoint" />
          </mxGeometry>
        </mxCell>
        <mxCell id="07yp42R3b0lHenqod3L6-44" value="empaquetacion de envio" style="ellipse;whiteSpace=wrap;html=1;aspect=fixed;" vertex="1" parent="1">
          <mxGeometry x="710" y="879.8399999999999" width="90" height="90" as="geometry" />
        </mxCell>
        <mxCell id="07yp42R3b0lHenqod3L6-47" value="" style="endArrow=none;html=1;rounded=0;" edge="1" parent="1">
          <mxGeometry width="50" height="50" relative="1" as="geometry">
            <mxPoint x="325" y="909.0099999999999" as="sourcePoint" />
            <mxPoint x="425" y="909.0099999999999" as="targetPoint" />
          </mxGeometry>
        </mxCell>
        <mxCell id="07yp42R3b0lHenqod3L6-49" value="" style="endArrow=none;html=1;rounded=0;" edge="1" parent="1">
          <mxGeometry width="50" height="50" relative="1" as="geometry">
            <mxPoint x="325" y="940.67" as="sourcePoint" />
            <mxPoint x="425" y="939.84" as="targetPoint" />
          </mxGeometry>
        </mxCell>
        <mxCell id="07yp42R3b0lHenqod3L6-50" value="stock de facturacion" style="text;html=1;align=center;verticalAlign=middle;resizable=0;points=[];autosize=1;strokeColor=none;fillColor=none;" vertex="1" parent="1">
          <mxGeometry x="310" y="909.84" width="130" height="30" as="geometry" />
        </mxCell>
        <mxCell id="07yp42R3b0lHenqod3L6-62" style="edgeStyle=orthogonalEdgeStyle;rounded=0;orthogonalLoop=1;jettySize=auto;html=1;entryX=0.5;entryY=1;entryDx=0;entryDy=0;" edge="1" parent="1" source="07yp42R3b0lHenqod3L6-58" target="07yp42R3b0lHenqod3L6-60">
          <mxGeometry relative="1" as="geometry" />
        </mxCell>
        <mxCell id="07yp42R3b0lHenqod3L6-58" value="pedido en transito" style="ellipse;whiteSpace=wrap;html=1;aspect=fixed;" vertex="1" parent="1">
          <mxGeometry x="505" y="498" width="90" height="90" as="geometry" />
        </mxCell>
        <mxCell id="07yp42R3b0lHenqod3L6-61" style="edgeStyle=orthogonalEdgeStyle;rounded=0;orthogonalLoop=1;jettySize=auto;html=1;entryX=0;entryY=0.5;entryDx=0;entryDy=0;" edge="1" parent="1" source="07yp42R3b0lHenqod3L6-60" target="07yp42R3b0lHenqod3L6-1">
          <mxGeometry relative="1" as="geometry" />
        </mxCell>
        <mxCell id="07yp42R3b0lHenqod3L6-60" value="pedido entregado" style="ellipse;whiteSpace=wrap;html=1;aspect=fixed;" vertex="1" parent="1">
          <mxGeometry x="505" y="290" width="90" height="90" as="geometry" />
        </mxCell>
        <mxCell id="07yp42R3b0lHenqod3L6-71" value="" style="endArrow=none;html=1;rounded=0;" edge="1" parent="1">
          <mxGeometry width="50" height="50" relative="1" as="geometry">
            <mxPoint x="1015" y="470" as="sourcePoint" />
            <mxPoint x="1095" y="470" as="targetPoint" />
          </mxGeometry>
        </mxCell>
        <mxCell id="07yp42R3b0lHenqod3L6-72" value="" style="endArrow=none;html=1;rounded=0;" edge="1" parent="1">
          <mxGeometry width="50" height="50" relative="1" as="geometry">
            <mxPoint x="1015" y="500" as="sourcePoint" />
            <mxPoint x="1095" y="500" as="targetPoint" />
          </mxGeometry>
        </mxCell>
        <mxCell id="07yp42R3b0lHenqod3L6-73" value="sotck productos" style="text;html=1;align=center;verticalAlign=middle;resizable=0;points=[];autosize=1;strokeColor=none;fillColor=none;" vertex="1" parent="1">
          <mxGeometry x="1000" y="468" width="110" height="30" as="geometry" />
        </mxCell>
        <mxCell id="07yp42R3b0lHenqod3L6-74" style="edgeStyle=orthogonalEdgeStyle;rounded=0;orthogonalLoop=1;jettySize=auto;html=1;entryX=0.5;entryY=0.967;entryDx=0;entryDy=0;entryPerimeter=0;" edge="1" parent="1" target="07yp42R3b0lHenqod3L6-73">
          <mxGeometry relative="1" as="geometry">
            <mxPoint x="1055" y="570" as="sourcePoint" />
          </mxGeometry>
        </mxCell>
        <mxCell id="07yp42R3b0lHenqod3L6-78" style="edgeStyle=orthogonalEdgeStyle;rounded=0;orthogonalLoop=1;jettySize=auto;html=1;" edge="1" parent="1">
          <mxGeometry relative="1" as="geometry">
            <mxPoint x="438" y="933.92" as="sourcePoint" />
            <mxPoint x="499.9999999999998" y="933.92" as="targetPoint" />
          </mxGeometry>
        </mxCell>
        <mxCell id="07yp42R3b0lHenqod3L6-81" style="edgeStyle=orthogonalEdgeStyle;rounded=0;orthogonalLoop=1;jettySize=auto;html=1;" edge="1" parent="1">
          <mxGeometry relative="1" as="geometry">
            <mxPoint x="500.9999999999998" y="913.92" as="sourcePoint" />
            <mxPoint x="439" y="913.92" as="targetPoint" />
          </mxGeometry>
        </mxCell>
        <mxCell id="07yp42R3b0lHenqod3L6-85" style="edgeStyle=orthogonalEdgeStyle;rounded=0;orthogonalLoop=1;jettySize=auto;html=1;entryX=0.75;entryY=1;entryDx=0;entryDy=0;" edge="1" parent="1" source="07yp42R3b0lHenqod3L6-83" target="07yp42R3b0lHenqod3L6-1">
          <mxGeometry relative="1" as="geometry">
            <mxPoint x="710" y="480" as="targetPoint" />
            <Array as="points">
              <mxPoint x="1130" y="820" />
              <mxPoint x="810" y="820" />
              <mxPoint x="810" y="400" />
              <mxPoint x="730" y="400" />
            </Array>
          </mxGeometry>
        </mxCell>
        <mxCell id="07yp42R3b0lHenqod3L6-90" style="edgeStyle=orthogonalEdgeStyle;rounded=0;orthogonalLoop=1;jettySize=auto;html=1;entryX=1;entryY=0.5;entryDx=0;entryDy=0;" edge="1" parent="1" source="07yp42R3b0lHenqod3L6-83" target="07yp42R3b0lHenqod3L6-89">
          <mxGeometry relative="1" as="geometry" />
        </mxCell>
        <mxCell id="07yp42R3b0lHenqod3L6-83" value="procesamiento de pagos" style="ellipse;whiteSpace=wrap;html=1;aspect=fixed;" vertex="1" parent="1">
          <mxGeometry x="1085" y="879.92" width="90" height="90" as="geometry" />
        </mxCell>
        <mxCell id="07yp42R3b0lHenqod3L6-91" style="edgeStyle=orthogonalEdgeStyle;rounded=0;orthogonalLoop=1;jettySize=auto;html=1;entryX=1;entryY=0.5;entryDx=0;entryDy=0;" edge="1" parent="1" source="07yp42R3b0lHenqod3L6-89" target="07yp42R3b0lHenqod3L6-44">
          <mxGeometry relative="1" as="geometry" />
        </mxCell>
        <mxCell id="07yp42R3b0lHenqod3L6-92" style="edgeStyle=orthogonalEdgeStyle;rounded=0;orthogonalLoop=1;jettySize=auto;html=1;entryX=0.25;entryY=1;entryDx=0;entryDy=0;" edge="1" parent="1" source="07yp42R3b0lHenqod3L6-89" target="07yp42R3b0lHenqod3L6-1">
          <mxGeometry relative="1" as="geometry">
            <mxPoint x="700" y="530" as="targetPoint" />
            <Array as="points">
              <mxPoint x="945" y="840" />
              <mxPoint x="790" y="840" />
              <mxPoint x="790" y="420" />
              <mxPoint x="670" y="420" />
            </Array>
          </mxGeometry>
        </mxCell>
        <mxCell id="07yp42R3b0lHenqod3L6-89" value="&lt;div&gt;&lt;br&gt;&lt;/div&gt;&lt;div&gt;coordinacion de entrega&lt;/div&gt;" style="ellipse;whiteSpace=wrap;html=1;aspect=fixed;" vertex="1" parent="1">
          <mxGeometry x="900" y="879.8399999999999" width="90" height="90" as="geometry" />
        </mxCell>
        <mxCell id="07yp42R3b0lHenqod3L6-27" value="verificar prodcutos" style="ellipse;whiteSpace=wrap;html=1;aspect=fixed;" vertex="1" parent="1">
          <mxGeometry x="1010" y="570" width="90" height="90" as="geometry" />
        </mxCell>
      </root>
    </mxGraphModel>
  </diagram>
</mxfile>
